<svg xmlns="http://www.w3.org/2000/svg" viewBox="0 0 18 18">
  <path
    fill="#000"
    fill-rule="evenodd"
    d="M9.04 1.18c.64-.02 1.28.12 1.85.4l.86-.42-.08.83c.45.3.84.68 1.15 1.13l.9.02-.58.68c.2.5.3 1.04.3 1.6v1.3c0 2.18-1.36 4.04-3.27 4.75 2.62.48 4.4 2.18 4.73 4.8.04.3-.2.55-.5.55H3.6a.5.5 0 0 1-.5-.55c.33-2.62 2.1-4.32 4.72-4.8a5.08 5.08 0 0 1-3.27-4.75v-1.3c0-.6.11-1.16.32-1.68l-.53-.72.9.04c.32-.43.72-.8 1.18-1.1l-.07-.84.86.44a4.3 4.3 0 0 1 1.83-.38Zm-2.7 5.16c.13 1.7 1.27 3.04 2.7 3.04 1.42 0 2.56-1.34 2.7-3.04-.82-.06-1.64-.34-2.38-.82a6.4 6.4 0 0 1-3.02.82Zm.45 8.76h4.5l-.36-2.1a5.48 5.48 0 0 0-3.8 0l-.34 2.1Z"
  />
</svg>
